<?xml version="1.0" encoding="UTF-8" standalone="no"?>
<!-- Created with Inkscape (http://www.inkscape.org/) -->

<svg
   version="1.1"
   id="svg1"
   width="1024"
   height="1536"
   viewBox="0 0 1024 1536"
   sodipodi:docname="angel_mould.svg"
   inkscape:version="1.4.2 (ebf0e940, 2025-05-08)"
   xmlns:inkscape="http://www.inkscape.org/namespaces/inkscape"
   xmlns:sodipodi="http://sodipodi.sourceforge.net/DTD/sodipodi-0.dtd"
   xmlns="http://www.w3.org/2000/svg"
   xmlns:svg="http://www.w3.org/2000/svg">
  <defs
     id="defs1" />
  <sodipodi:namedview
     id="namedview1"
     pagecolor="#ffffff"
     bordercolor="#000000"
     borderopacity="0.25"
     inkscape:showpageshadow="2"
     inkscape:pageopacity="0.0"
     inkscape:pagecheckerboard="0"
     inkscape:deskcolor="#d1d1d1"
     inkscape:zoom="1.5673202"
     inkscape:cx="230.32945"
     inkscape:cy="996.28651"
     inkscape:window-width="1416"
     inkscape:window-height="750"
     inkscape:window-x="0"
     inkscape:window-y="25"
     inkscape:window-maximized="0"
     inkscape:current-layer="layer1" />
  <g
     inkscape:groupmode="layer"
     id="layer1"
     inkscape:label="Tracing"
     style="display:none">
    <path
       style="fill:#cccccc;stroke:#b3b3b3"
       d="M 326.53985,621.6569 C -272,380 -272,380 326.53985,621.6569 Z M -11.26008,1412.579 C -272,380 -272,380 -11.26008,1412.579 Z m 155.83546,172.3104 C -272,380 -272,380 144.57538,1584.8894 Z M 99.8259,1532.5 C -272,380 -272,380 99.8259,1532.5 Z m 137.52035,14.25 c -2.79699,-2.8875 -9.10921,-10.425 -14.02715,-16.75 -16.67628,-21.4475 -62.63923,-83.4572 -67.82178,-91.5 -2.83523,-4.4 -8.25887,-12.8899 -12.05253,-18.8664 -3.79366,-5.9765 -8.59569,-12.7956 -10.67118,-15.1534 -2.13338,-2.4237 -3.77361,-5.3339 -3.77361,-6.6953 0,-4.8587 4.37335,-19.5864 20.27701,-68.2849 4.67,-14.3 8.7941,-27.4179 9.16465,-29.1509 0.7427,-3.4735 0.59194,-3.6103 -23.44166,-21.2676 -12.21167,-8.9718 -29.24795,-24.334 -49.99764,-45.0845 C 35.68534,1184.6779 18.51531,1152.7771 5.57318,1086.4225 0.20084,1058.8784 -1.40804,1023.7193 1.48121,997 c 1.59034,-14.7072 9.42899,-52.83512 15.11074,-73.5 3.87001,-14.07545 12.79856,-38.08447 15.05659,-40.48741 1.22633,-1.30503 1.69512,-1.1211 3.82309,1.5 1.33396,1.64307 4.81106,7.42592 7.72688,12.85077 8.20334,15.26222 17.4917,29.57294 26.80149,41.29347 11.40411,14.35717 36.75897,40.29543 57.22665,58.5434 14.71321,13.11757 16.85519,15.41747 17.79443,19.10617 7.81901,30.7084 14.02875,44.5878 32.58498,72.8309 8.0139,12.1974 26.05718,36.0615 35.04105,46.3455 4.73482,5.4201 5.41354,7.5172 2.43288,7.5172 -2.45562,0 -9.66148,-8.0197 -22.13808,-24.6385 -27.79211,-37.0188 -44.1499,-68.2224 -51.9337,-99.0668 -0.93166,-3.6919 -3.53059,-6.5136 -21.28472,-23.10965 C 93.8551,972.00407 71.17456,948.727 63.37559,938.35513 56.14972,928.74541 47.83254,915.47895 40.90274,902.50941 34.09863,889.7751 33.57461,889.44964 30.62655,896.12702 26.29676,905.93403 20.94006,924.07351 15.94039,945.85897 13.22317,957.69889 11,968.35952 11,969.54925 c 0,1.18973 1.61997,4.28475 3.59992,6.87782 4.30821,5.64229 29.24464,26.61693 42.16648,35.46733 8.58423,5.8794 10.57521,8.1584 8.33628,9.5421 -1.10068,0.6803 -16.89836,-9.5981 -26.5238,-17.257 C 34.6855,1001.0815 26.4375,993.88527 20.25,988.18785 14.0625,982.49042 8.991,977.97989 8.98001,978.16445 8.96901,978.349 8.26617,982.325 7.41814,987 c -1.02729,5.66318 -1.72852,17.9422 -2.10111,36.7918 l -0.55924,28.2918 4.37111,4.0498 c 9.85694,9.1324 24.8944,17.7444 45.3711,25.984 11.13282,4.4798 14.39062,6.8948 10.35045,7.6729 -2.15086,0.4142 -19.27616,-6.0013 -28.90374,-10.828 -6.25655,-3.1367 -18.19441,-10.7278 -28.21801,-17.9434 -2.03491,-1.4649 -2.05104,-1.4044 -1.46727,5.5 0.96844,11.4539 9.50436,47.7815 15.23026,64.8178 2.93894,8.7442 5.7625,16.3175 6.27458,16.8296 3.45444,3.4544 42.89991,6.5393 57.48373,4.4956 5.3944,-0.756 5.75,-0.6788 5.75,1.2471 0,1.3864 -0.89279,2.3026 -2.75,2.8219 -5.20794,1.4565 -38.1695,0.7451 -47.68457,-1.0291 -4.91402,-0.9163 -9.13709,-1.4635 -9.38461,-1.216 -0.84525,0.8453 2.18416,7.0079 9.10121,18.5142 7.65176,12.7285 14.50776,22.1879 23.19288,32 8.58114,9.6946 35.09868,36.4027 42.52509,42.8307 3.575,3.0944 9.88825,8.8082 14.02944,12.6975 7.04182,6.6133 26.59566,21.8865 35.9253,28.0605 2.39463,1.5847 4.46996,2.3488 4.94564,1.8209 1.12679,-1.2505 5.49893,-14.872 9.68165,-30.1633 1.91761,-7.0105 7.04159,-24.6713 11.38662,-39.2463 4.34503,-14.575 9.74365,-33.475 11.99693,-42 4.2108,-15.931 5.8986,-20.5 7.57276,-20.5 2.98552,0 0.23208,12.0094 -13.10256,57.1479 -3.06306,10.3687 -7.60129,26.0521 -10.08495,34.8521 -5.23605,18.5521 -15.72111,52.4002 -28.34376,91.5 C 138.78139,1376.7725 134,1392.6969 134,1395.3113 c 0,1.842 7.45277,13.7966 26.61315,42.6887 3.46506,5.225 8.89337,12.6154 12.06289,16.4231 l 5.76278,6.9231 2.7971,-8.9231 c 5.2598,-16.7794 11.92632,-42.9667 18.43679,-72.4231 0.79015,-3.575 3.86056,-19.775 6.82312,-36 6.72009,-36.8037 10.99641,-56.8922 12.41228,-58.3081 0.78352,-0.7835 1.39766,-0.7861 2.17459,-0.01 0.77692,0.7769 0.21769,5.4226 -1.98019,16.45 -1.68458,8.452 -5.98067,30.6673 -9.54688,49.3673 -8.22025,43.1043 -12.95782,64.0289 -20.03737,88.5 -8.39353,29.0129 -8.70602,25.7107 4.06904,43 20.97764,28.3904 28.85592,38.6652 39.31581,51.2751 l 10.59689,12.7751 1.6933,-2.2751 c 0.93132,-1.2513 5.65384,-7.6751 10.4945,-14.2751 4.84065,-6.6 16.19151,-21.675 25.22413,-33.5 21.13677,-27.6711 22.07903,-29.1595 21.41404,-33.827 -0.28782,-2.0201 -4.07313,-17.173 -8.41181,-33.673 -9.24512,-35.1592 -10.22923,-39.7325 -16.78471,-78 -9.56738,-55.8494 -10.48639,-62.365 -9.04201,-64.1054 1.18285,-1.4252 1.43137,-1.4056 2.60995,0.2062 0.71643,0.9798 1.30261,3.1744 1.30261,4.8769 0,4.2274 8.24386,53.9256 12.61046,76.0223 4.37821,22.1554 10.03964,45.9694 14.8585,62.5 2.00414,6.875 4.26495,15.425 5.02403,19 0.75909,3.575 1.77076,7.5521 2.24818,8.8379 1.07501,2.8954 0.55825,3.5254 11.76104,-14.3379 4.82897,-7.7 13.38313,-20.322 19.00924,-28.049 13.88463,-19.0692 13.98021,-19.2746 12.49189,-26.8396 -0.65963,-3.3528 -5.37998,-18.0245 -10.48967,-32.6037 -16.66907,-47.5612 -28.25696,-86.0187 -39.92684,-132.5079 -8.95822,-35.6868 -14.03258,-60.5202 -13.01899,-63.7137 1.44087,-4.5398 3.12829,-0.054 6.12965,16.2958 1.75862,9.5798 4.54662,22.8179 6.19554,29.4179 5.82242,23.3049 20.13922,74.9323 21.02516,75.8182 1.48433,1.4843 7.09729,-1.0255 14.75601,-6.5981 14.93368,-10.866 37.15655,-29.5102 53.05643,-44.5125 16.77263,-15.8257 22.55438,-22.1396 30.581,-33.3959 5.60589,-7.8605 24.68837,-37.8553 24.68837,-38.8054 0,-0.3853 -5.5125,-1.0088 -12.25,-1.3856 -22.70753,-1.27 -42.26125,-5.9694 -44.83303,-10.7748 -1.6458,-3.0752 1.40061,-3.3091 7.29292,-0.5598 9.69482,4.5235 17.19333,5.8847 35.29011,6.4063 l 17,0.4899 3.73777,-6.9611 c 4.14573,-7.7209 13.13347,-30.2552 17.11633,-42.9145 2.30463,-7.3251 7.6459,-31.7127 7.6459,-34.9103 0,-0.7337 -6.71788,1.9609 -16.25,6.518 -19.89733,9.5126 -27.69899,12.5102 -38.95703,14.9686 -7.24355,1.5818 -9.00672,1.6822 -10.49001,0.5976 -1.66638,-1.2185 -1.62015,-1.3719 0.70703,-2.3458 1.36951,-0.5731 6.53731,-2.0192 11.484,-3.2137 11.74702,-2.8366 23.30643,-7.3003 38.04688,-14.692 17.24586,-8.6482 16.23103,-7.3317 17.4398,-22.6233 1.07584,-13.6101 1.4258,-64.6048 0.44335,-64.6048 -0.31678,0 -5.15428,4.45147 -10.75,9.89216 -12.66562,12.31474 -19.09578,17.65924 -33.65605,27.97384 -6.80973,4.8241 -12.47585,8.134 -13.92431,8.134 h -2.44229 l 2.42432,-2.6191 c 1.33337,-1.4406 6.92431,-5.6567 12.42431,-9.3692 15.17642,-10.2441 40.51128,-33.26525 43.97073,-39.9551 1.89192,-3.65856 1.83006,-4.84405 -1.59437,-30.5566 -2.25764,-16.95155 -5.91454,-34.96496 -8.9919,-44.29293 -2.45819,-7.45112 -2.67846,-7.37831 -9.87473,3.26375 -10.03071,14.83369 -20.09617,26.70625 -38.4698,45.37643 -19.44129,19.75509 -40.1309,38.49776 -52.90025,47.92225 -3.92682,2.8982 -10.13601,7.7176 -13.79818,10.7097 -5.96764,4.8758 -6.77133,5.9664 -7.74592,10.5107 -1.70791,7.9637 -9.62521,30.9362 -14.37488,41.7095 -7.11218,16.132 -25.90605,47.423 -39.99332,66.5872 -3.72494,5.0674 -7.99994,10.8918 -9.5,12.9431 -2.79276,3.8191 -5.45743,4.5298 -6.02054,1.6058 -0.17386,-0.9028 1.00401,-3.1476 2.61751,-4.9885 4.37047,-4.9863 18.74263,-25.7062 27.32064,-39.3872 17.47922,-27.8776 24.48098,-42.926 32.78381,-70.4598 2.23901,-7.425 4.07099,-14.008 4.07107,-14.6288 7e-5,-0.6209 3.48763,-3.7332 7.75013,-6.9163 29.69041,-22.17167 68.28222,-58.02238 88.40118,-82.12221 4.20815,-5.0408 11.55882,-14.79261 16.33483,-21.67067 12.31418,-17.73403 13.77634,-18.67517 15.5242,-9.99245 0.42409,2.10673 2.37722,9.68043 4.34029,16.83043 3.92294,14.28837 6.75088,32.03011 9.24725,58.01472 2.11735,22.03933 1.47515,82.30188 -1.07617,100.98528 -5.55194,40.6571 -24.88094,86.694 -54.37174,129.5 -7.2219,10.4826 -30.11818,34.4792 -47.14984,49.4157 -18.41182,16.1469 -40.87801,33.4977 -48.0502,37.1096 -3.82239,1.9249 -6.9498,4.0164 -6.9498,4.6477 0,1.885 10.67162,35.6036 16.63205,52.5515 14.18334,40.3289 17.36795,50.3385 17.36795,54.5896 0,1.441 -1.80164,4.7761 -4.23843,7.8461 -2.33114,2.9369 -12.80827,18.1648 -23.28252,33.8398 -20.96405,31.3733 -30.09179,44.0714 -52.19598,72.6131 -8.14122,10.5121 -18.39012,24.1246 -22.77534,30.25 -4.38522,6.1253 -8.67129,11.1369 -9.52459,11.1369 -0.8533,0 -3.83991,-2.3625 -6.63689,-5.25 z M 73.7302,1331.6402 c -10.38049,-4.3772 -16.23689,-10.2044 -19.87301,-19.7739 -2.25956,-5.9467 -2.62672,-16.2413 -0.82324,-23.082 4.34614,-16.4853 20.52608,-26.7443 37.40444,-23.7166 12.64494,2.2682 20.41683,7.8789 25.16975,18.1705 2.54035,5.5007 2.88276,7.3558 2.81695,15.2618 -0.1254,15.0673 -5.93661,25.6507 -17.5573,31.9754 -7.64903,4.1632 -18.88346,4.6453 -27.13759,1.1648 z m 21.14789,-4.1966 c 6.68108,-1.9841 12.28229,-7.0341 15.84213,-14.2831 2.37985,-4.8461 2.77901,-6.8834 2.77441,-14.1605 -0.008,-13.2708 -4.76036,-21.4269 -15.87816,-27.2526 -5.7072,-2.9906 -18.18036,-3.0463 -24.61647,-0.1101 -12.33636,5.6281 -19.43755,21.466 -15.57773,34.7433 2.68356,9.2312 11.74897,19.3231 19.45012,21.6527 4.37241,1.3226 12.45791,1.0578 18.0057,-0.5897 z m 295.32687,-0.3378 c -6.76343,-2.3361 -11.75145,-6.347 -16.38939,-13.1786 -7.21912,-10.6338 -9.48357,-22.9474 -6.23292,-33.8936 2.99307,-10.0787 15.40896,-19.567 27.41735,-20.9525 23.29055,-2.6872 41.51223,15.5395 39.77725,39.7881 -0.26157,3.6557 -1.25662,8.1571 -2.21123,10.0031 -4.65479,9.0014 -15.25868,16.644 -26.36524,19.0024 -7.12323,1.5126 -9.75696,1.386 -15.99582,-0.7689 z m 22.31115,-6.0099 c 6.61206,-2.9248 13.87402,-10.7437 16.04274,-17.2731 4.68094,-14.093 -2.41123,-30.7189 -15.89831,-37.2698 -12.17511,-5.9137 -23.24615,-3.8226 -33.64779,6.3554 -6.91716,6.7684 -8.52295,11.2019 -7.69438,21.2439 0.95136,11.5302 8.04016,22.3101 17.99629,27.3669 4.43168,2.2509 6.13242,2.5718 11.70145,2.2075 3.67351,-0.2403 8.69029,-1.3879 11.5,-2.6308 z M 236,1118.6802 c -20.34245,-4.6136 -34.56279,-25.9653 -31.0192,-46.575 4.71561,-27.4263 29.96197,-42.3136 53.2153,-31.3801 14.43808,6.7886 22.26126,20.5457 22.0499,38.7749 -0.20221,17.4403 -7.11173,28.9207 -21.67136,36.0077 -8.21995,4.0011 -14.82719,4.9296 -22.57464,3.1725 z m 19.12001,-6.8772 c 7.5408,-3.4528 12.91376,-8.513 16.81884,-15.8397 11.03132,-20.6968 -0.85344,-49.0547 -22.66925,-54.0904 -4.30629,-0.994 -6.25572,-0.9169 -11.8744,0.4696 -11.96496,2.9527 -19.57803,9.404 -25.1612,21.3216 -2.31202,4.9352 -2.73195,7.1478 -2.72069,14.3359 0.0113,7.2494 0.42261,9.3375 2.79528,14.1922 9.28154,18.991 26.71964,26.9789 42.81142,19.6108 z m 35.35281,-122.84698 c -0.9094,-1.47143 1.27153,-4.5442 14.51886,-20.45602 6.41061,-7.7 15.75232,-19.4 20.75935,-26 5.00703,-6.6 14.12165,-18.075 20.2547,-25.5 6.13306,-7.425 14.60325,-17.96931 18.82264,-23.43179 C 380.88927,872.77556 384.06787,869 385.51204,869 c 2.62592,0 1.59593,3.59405 -2.32396,8.10921 -2.09656,2.41493 -6.70098,8.21579 -10.23204,12.89079 -3.53106,4.675 -13.2908,16.96624 -21.68831,27.31388 -8.39751,10.34763 -19.17502,23.84763 -23.95003,30 C 315.25098,962.86125 292.68842,990 291.82939,990 c -0.39125,0 -1.0017,-0.46979 -1.35657,-1.04398 z M 180.84969,974.75 c -3.4321,-4.5375 -9.67091,-12.525 -13.86402,-17.75 -9.16439,-11.41966 -37.62932,-47.9122 -44.46119,-57 -2.68754,-3.575 -8.90073,-11.56881 -13.80707,-17.76402 -5.5175,-6.96691 -8.70309,-11.83091 -8.3504,-12.75 1.35374,-3.5278 2.72859,-2.07285 22.69198,24.01402 8.41793,11 21.45033,27.65 28.96091,37 C 175.56738,959.81454 191,980.02115 191,981.53838 191,982.34227 190.12022,983 189.04494,983 c -1.27784,0 -4.11663,-2.85776 -8.19525,-8.25 z m 59.81698,-30.41667 c -0.86303,-0.86303 -0.86501,-138.72703 -0.003,-187.76398 0.54015,-30.71632 0.92118,-37.85666 2.04313,-38.2872 0.75854,-0.29107 1.69725,-0.21108 2.08603,0.17777 0.78704,0.78718 0.36733,222.01985 -0.42646,224.79008 -0.50341,1.75687 -2.45505,2.32829 -3.7,1.08333 z M 197.52794,919.25 C 195.58047,912.7875 189.51932,894 184.05873,877.5 173.13136,844.4813 165,818.07049 165,815.59692 c 0,-1.72664 0.83941,-1.99071 2.64351,-0.83161 0.62894,0.40408 3.88672,9.50969 7.23953,20.23469 3.3528,10.725 9.01111,27.92225 12.57402,38.21611 11.73471,33.90363 17.83016,54.73289 16.48963,56.34812 -0.65537,0.78967 -1.571,1.43577 -2.03473,1.43577 -0.46373,0 -2.43654,-5.2875 -4.38402,-11.75 z m 88.15539,10.1 c -1.19146,-1.19147 -0.75383,-4.66612 1.87604,-14.89517 3.52908,-13.72662 8.40179,-30.1529 16.45018,-55.45483 7.91642,-24.88706 9.39831,-30.11208 11.06098,-39 1.38593,-7.40853 2.60815,-10.31662 3.97964,-9.46899 2.85917,1.76706 -0.47793,17.80933 -9.39504,45.16425 -6.31348,19.36781 -10.15877,32.27013 -17.60564,59.07323 -3.57602,12.87098 -4.94381,16.00386 -6.36616,14.58151 z"
       id="path1"
       sodipodi:nodetypes="sssssssssssssssssssssssssssssssssssssssssssssscssssssssssssssssssssssssssssscsssssssssscsssssssssssssssssssssssssssssscsssssssssssssscssssssssssssssssssssssssssssssssssssssssssssssscsssssssssssssssssssssssssssssssssssssssssssssssssssssssssccsssccsssssssssssssssss" />
  </g>
  <g
     inkscape:groupmode="layer"
     inkscape:label="Mould"
     id="g1"
     style="display:inline;fill:#cccccc;stroke:#b3b3b3">
    <path
       style="fill:none;stroke:#1a1a1a;stroke-width:5;stroke-linejoin:round;stroke-dasharray:none"
       d="m 344.75274,1015.2385 c 75.62363,-57.13785 118.27479,-113.10784 118.27479,-113.10784 18.63272,52.26387 35.04626,151.46864 -15.33515,249.20444 -30.03362,58.2628 -79.62586,105.6484 -127.04468,135.6496 l 33.34792,108.8928 -28.55178,43.3176 -5.28256,-13.0705 -81.19849,76.8301 -72.45865,-74.8789 -5.67903,14.5844 -28.55178,-45.2317 31.89499,-107.389 C 117.61446,1262.3469 68.61019,1211.1489 38.57657,1152.8861 -11.80484,1055.1503 5.8847617,955.94551 24.517482,903.68164 c 0,0 41.375098,55.96999 116.998728,113.10786 19.32604,70.582 63.78277,115.7245 63.78277,115.7245 23.36186,16.6887 52.22815,15.8118 71.63241,1.253 0,0 48.49531,-47.9464 67.82135,-118.5285 z"
       id="path8-5"
       sodipodi:nodetypes="ccscccccccccsccccc" />
  </g>
  <g
     inkscape:groupmode="layer"
     id="layer2"
     inkscape:label="Halo"
     style="display:none">
    <path
       style="display:inline;fill:none;stroke:#1a1a1a;stroke-width:5;stroke-linejoin:round;stroke-dasharray:none"
       d="M 242.87965,939.61488 V 717.78556"
       id="path5" />
    <path
       style="display:inline;fill:none;stroke:#1a1a1a;stroke-width:5;stroke-linejoin:round;stroke-dasharray:none"
       d="M 285.93435,929.53173 319.54486,816.93654"
       id="path6" />
    <path
       style="display:inline;fill:none;stroke:#1a1a1a;stroke-width:5;stroke-linejoin:round;stroke-dasharray:none"
       d="M 294.33698,990.03063 385.08534,877.43545"
       id="path7" />
    <path
       style="display:inline;fill:none;stroke:#1a1a1a;stroke-width:5;stroke-linejoin:round;stroke-dasharray:none"
       d="M 200.3346,931.08271 166.72409,818.48752"
       id="path6-3" />
    <path
       style="display:inline;fill:none;stroke:#1a1a1a;stroke-width:5;stroke-linejoin:round;stroke-dasharray:none"
       d="M 191.93197,991.58161 101.18361,878.98643"
       id="path7-7" />
  </g>
  <g
     inkscape:groupmode="layer"
     id="layer3"
     inkscape:label="Holes"
     style="display:none">
    <circle
       style="display:inline;fill:none;stroke:#1a1a1a;stroke-width:5;stroke-linejoin:round;stroke-dasharray:none"
       id="path11"
       cx="243.1991"
       cy="1075.0154"
       r="40.332603" />
    <circle
       style="display:inline;fill:none;stroke:#1a1a1a;stroke-width:5;stroke-linejoin:round;stroke-dasharray:none"
       id="path11-9"
       cx="407.83264"
       cy="1311.8325"
       r="40.332603" />
    <circle
       style="display:inline;fill:none;stroke:#1a1a1a;stroke-width:5;stroke-linejoin:round;stroke-dasharray:none"
       id="path11-9-4"
       cx="-78.43631"
       cy="1313.3835"
       r="40.332603"
       transform="scale(-1,1)" />
  </g>
</svg>
