<?xml version="1.0" encoding="UTF-8" standalone="no"?>
<!-- Created with Inkscape (http://www.inkscape.org/) -->

<svg
   width="210mm"
   height="297mm"
   viewBox="0 0 210 297"
   version="1.1"
   id="svg1"
   xml:space="preserve"
   inkscape:version="1.4.2 (ebf0e940, 2025-05-08)"
   sodipodi:docname="koru_stars.svg"
   xmlns:inkscape="http://www.inkscape.org/namespaces/inkscape"
   xmlns:sodipodi="http://sodipodi.sourceforge.net/DTD/sodipodi-0.dtd"
   xmlns:xlink="http://www.w3.org/1999/xlink"
   xmlns="http://www.w3.org/2000/svg"
   xmlns:svg="http://www.w3.org/2000/svg"><sodipodi:namedview
     id="namedview1"
     pagecolor="#ffffff"
     bordercolor="#000000"
     borderopacity="0.25"
     inkscape:showpageshadow="2"
     inkscape:pageopacity="0.0"
     inkscape:pagecheckerboard="0"
     inkscape:deskcolor="#d1d1d1"
     inkscape:document-units="mm"
     inkscape:zoom="0.45442709"
     inkscape:cx="204.65329"
     inkscape:cy="875.82807"
     inkscape:window-width="1448"
     inkscape:window-height="875"
     inkscape:window-x="390"
     inkscape:window-y="63"
     inkscape:window-maximized="0"
     inkscape:current-layer="layer2" /><defs
     id="defs1" /><g
     inkscape:label="Source Image"
     inkscape:groupmode="layer"
     id="layer1"
     style="opacity:0.068"><image
       width="265.88727"
       height="398.83093"
       preserveAspectRatio="none"
       xlink:href="koru-stars-cleaned-up.png"
       id="image1"
       x="-31.412399"
       y="-42.132549" /></g><g
     inkscape:groupmode="layer"
     id="layer2"
     inkscape:label="Raised"><path
       id="path2"
       style="fill:none;stroke:#1a1a1a;stroke-width:2.04099;stroke-linejoin:round"
       d="m 81.72571,269.8929 c 12.011685,-25.89414 28.4603,-45.88034 44.01513,-62.87876 15.55482,-16.99842 32.16335,-27.54214 37.69987,-46.79151 4.3968,-15.28687 1.52444,-23.3715 -4.46397,-31.43965 -4.97758,-6.7063 -16.39936,-9.12823 -24.25323,-6.28786 -6.27278,2.26855 -10.76261,9.64331 -11.67748,16.25068 -0.61688,4.45521 1.53592,10.77505 7.33791,14.34329 -6.1237,-7.73735 -1.58017,-19.47181 8.12056,-20.41681 6.14936,-0.59904 11.68873,1.95991 14.33622,6.48807 2.78915,4.77051 1.16584,11.6476 -1.45157,16.51447 -2.49803,4.64488 -7.27595,8.53975 -12.38585,9.84514 -5.41281,1.38278 -11.88047,0.26216 -16.51445,-2.85827 -5.48228,-3.69168 -9.11868,-10.36444 -10.48032,-16.83204 -1.38793,-6.59249 -0.15461,-13.98213 2.85827,-20.00789 3.34765,-6.69529 9.01985,-12.88229 15.87928,-15.87929 7.57214,-3.3084 16.95745,-3.63985 24.77169,-0.95275 8.38284,2.88263 16.11309,9.34979 20.32548,17.14962 4.96582,9.19489 5.54857,20.82638 3.76617,31.12339 -2.68434,15.50755 -10.80872,29.52512 -21.09702,42.2389 -25.33671,31.30988 -41.83159,53.62685 -56.75812,86.24694 L 81.72571,269.8929"
       sodipodi:nodetypes="cssssscsssssssssssscc" /></g><g
     inkscape:groupmode="layer"
     id="layer3"
     inkscape:label="Sunken"><path
       style="fill:none;stroke:#1a1a1a;stroke-width:2.04099;stroke-linejoin:round"
       d="M 95.976351,53.043084 C 97.962716,69.022083 105.81729,79.132852 119.78045,83.135058 106.37434,86.372854 96.714096,94.037588 96.425487,112.77789 93.59401,95.643512 84.882625,86.349018 71.273984,83.584195 86.241507,81.483898 92.944038,69.46562 95.976351,53.043084 Z"
       id="path3"
       sodipodi:nodetypes="ccccc" /><path
       style="fill:none;stroke:#1a1a1a;stroke-width:2.04099;stroke-linejoin:round"
       d="m 67.264597,129.97292 c 1.986364,15.979 9.840942,26.08977 23.804101,30.09198 -13.406112,3.23779 -23.066356,10.90253 -23.354965,29.64283 -2.831478,-17.13439 -11.542862,-26.42888 -25.151503,-29.1937 14.967522,-2.1003 21.670053,-14.11858 24.702367,-30.54111 z"
       id="path3-0"
       sodipodi:nodetypes="ccccc" /></g></svg>
